<?xml version="1.0" standalone="no"?><!DOCTYPE svg PUBLIC "-//W3C//DTD SVG 1.1//EN" "http://www.w3.org/Graphics/SVG/1.1/DTD/svg11.dtd"><svg t="1567430138669" class="icon" viewBox="0 0 1042 1024" version="1.1" xmlns="http://www.w3.org/2000/svg" p-id="3975" xmlns:xlink="http://www.w3.org/1999/xlink" width="65.125" height="64"><defs><style type="text/css"></style></defs><path d="M521.423313 892.07362c259.662528-188.183558 389.496933-354.592982 389.496932-499.234553C910.920245 175.882994 736.538699 0 521.423313 0 306.307926 0 131.92638 175.882994 131.92638 392.839067 131.92638 537.480638 261.760785 703.890061 521.423313 892.07362zM219.877301 392.839067C219.877301 224.287411 355.051583 87.95092 521.423313 87.95092s301.546012 136.336491 301.546012 304.888147c0 100.289178-97.813988 233.170454-301.546012 389.553473-203.732025-156.383018-301.546012-289.264294-301.546012-389.553473z" p-id="3976"></path><path d="M521.423313 571.680982c97.148074 0 175.90184-78.753767 175.90184-175.901841S618.571387 219.877301 521.423313 219.877301 345.521472 298.631067 345.521472 395.779141s78.753767 175.90184 175.901841 175.901841z m0-87.950921c-48.574037 0-87.95092-39.376883-87.95092-87.95092s39.376883-87.95092 87.95092-87.95092 87.95092 39.376883 87.95092 87.95092-39.376883 87.95092-87.95092 87.95092zM932.845153 936.04908H110.001472l42.002847-213.595092H319.827239v-87.950921H79.658405L3.078282 1024h1036.690062l-76.580123-389.496933h-240.168834v87.950921h167.82292z" p-id="3977"></path></svg>