<?xml version="1.0" standalone="no"?><!DOCTYPE svg PUBLIC "-//W3C//DTD SVG 1.1//EN" "http://www.w3.org/Graphics/SVG/1.1/DTD/svg11.dtd"><svg t="1565678919477" class="icon" viewBox="0 0 1024 1024" version="1.1" xmlns="http://www.w3.org/2000/svg" p-id="1678" xmlns:xlink="http://www.w3.org/1999/xlink" width="64" height="64"><defs><style type="text/css"></style></defs><path d="M810.666667 128H213.333333a85.333333 85.333333 0 0 0-85.333333 85.333333v597.333334a85.333333 85.333333 0 0 0 85.333333 85.333333h597.333334a85.333333 85.333333 0 0 0 85.333333-85.333333V213.333333a85.333333 85.333333 0 0 0-85.333333-85.333333z m-134.4 272.213333l-276.053334 276.053334a20.48 20.48 0 0 1-29.866666 0l-22.613334-22.613334a20.48 20.48 0 0 1 0-29.866666l276.053334-276.053334a20.48 20.48 0 0 1 29.866666 0l22.613334 22.613334a20.48 20.48 0 0 1 0 29.866666z" p-id="1679"></path></svg>