<?xml version="1.0" standalone="no"?><!DOCTYPE svg PUBLIC "-//W3C//DTD SVG 1.1//EN" "http://www.w3.org/Graphics/SVG/1.1/DTD/svg11.dtd"><svg t="1566097845768" class="icon" viewBox="0 0 1024 1024" version="1.1" xmlns="http://www.w3.org/2000/svg" p-id="1420" xmlns:xlink="http://www.w3.org/1999/xlink" width="64" height="64"><defs><style type="text/css"></style></defs><path d="M510.976182 208.775954c89.87596 0 162.748664 68.00279 162.748664 151.891386l81.374332 0c0-125.823684-109.296265-227.835032-244.122997-227.835032-134.830825 0-244.12402 102.011348-244.12402 227.835032l81.373309 0C348.224448 276.778744 421.095106 208.775954 510.976182 208.775954L510.976182 208.775954zM782.227026 411.314857 239.727385 411.314857c-29.964452 0-54.253648 22.672372-54.253648 50.621934l0 379.733581c0 27.973098 24.288173 50.646494 54.253648 50.646494l542.499641 0 0.004093 0c29.953196 0.004093 54.247508-22.673395 54.247508-50.646494L836.478627 461.935768C836.478627 433.987229 812.184315 411.314857 782.227026 411.314857L782.227026 411.314857zM791.107277 842.848197c0 5.759167-4.713348 10.471492-10.474562 10.471492L243.891218 853.319689c-5.762237 0-10.471492-4.712325-10.471492-10.471492L233.419725 468.452181c0-5.759167 4.709255-10.472516 10.471492-10.472516L780.632715 457.979666c5.761214 0 10.474562 4.713348 10.474562 10.472516L791.107277 842.848197 791.107277 842.848197zM510.978229 537.89067l-0.002047-0.004093c-44.954865 0-81.377402 33.991162-81.377402 75.947739 0 28.028357 16.48137 52.267411 40.691771 65.404616l0 72.262814c0 21.823028 18.222013 39.545668 40.688701 39.545668 22.458501 0 40.686654-17.721617 40.686654-39.545668l0-72.262814c24.209378-13.137205 40.687678-37.376259 40.687678-65.404616C592.349491 571.881832 555.929 537.89067 510.978229 537.89067L510.978229 537.89067zM510.978229 537.89067" p-id="1421"></path></svg>