<?xml version="1.0" standalone="no"?><!DOCTYPE svg PUBLIC "-//W3C//DTD SVG 1.1//EN" "http://www.w3.org/Graphics/SVG/1.1/DTD/svg11.dtd"><svg t="1568618923907" class="icon" viewBox="0 0 1024 1024" version="1.1" xmlns="http://www.w3.org/2000/svg" p-id="2045" width="32" height="32" xmlns:xlink="http://www.w3.org/1999/xlink"><defs><style type="text/css"></style></defs><path d="M512 188c43.7 0 86.1 8.6 126 25.4 38.6 16.3 73.2 39.7 102.9 69.4s53.1 64.4 69.4 102.9c16.9 39.9 25.4 82.3 25.4 126s-8.6 86.1-25.4 126c-16.3 38.6-39.7 73.2-69.4 102.9S676.5 793.7 638 810c-39.9 16.9-82.3 25.4-126 25.4s-86.1-8.6-126-25.4c-38.6-16.3-73.2-39.7-102.9-69.4s-53.1-64.4-69.4-102.9c-16.9-39.9-25.4-82.3-25.4-126s8.6-86.1 25.4-126c16.3-38.6 39.7-73.2 69.4-102.9s64.4-53.1 102.9-69.4c39.9-16.9 82.3-25.4 126-25.4m0-60c-212 0-383.8 171.8-383.8 383.8S300 895.6 512 895.6s383.8-171.8 383.8-383.8S724 128 512 128z" p-id="2046"></path><path d="M680.2 488.2L430.9 344.3c-8.9-5.2-20-5.2-28.9 0-9 5.2-14.6 14.8-14.6 25.1v287.9c0.1 15.9 13.2 28.9 29.1 28.9 5 0 10-1.3 14.4-3.9l249.3-143.9c8.9-5.2 14.4-14.8 14.4-25.1s-5.5-19.9-14.4-25.1z m-74.9 25.1c0 0.6-0.2 1.6-1.3 2.2l-154.7 89.4c-1.1 0.6-2.1 0.3-2.6 0s-1.3-0.9-1.3-2.2V424c0-1.3 0.8-2 1.3-2.2 0.3-0.2 0.7-0.4 1.3-0.4 0.4 0 0.8 0.1 1.3 0.4L604 511.1c1.1 0.6 1.3 1.7 1.3 2.2z" p-id="2047"></path></svg>